<svg xmlns="http://www.w3.org/2000/svg" xmlns:xlink="http://www.w3.org/1999/xlink" viewBox="0 0 263.39 263.39"><defs><style>.cls-1{fill:#6860ff;}.cls-2{fill:url(#linear-gradient);}.cls-3{fill:#19232b;}</style><linearGradient id="linear-gradient" x1="59.75" y1="79.18" x2="211.09" y2="189.93" gradientUnits="userSpaceOnUse"><stop offset="0" stop-color="#bdccf0"/><stop offset="0.01" stop-color="#bfcef1"/><stop offset="0.11" stop-color="#d6dff6"/><stop offset="0.23" stop-color="#e8ecfa"/><stop offset="0.38" stop-color="#f5f6fd"/><stop offset="0.57" stop-color="#fcfbff"/><stop offset="1" stop-color="#fefdff"/></linearGradient></defs><title>Asset 2</title><g id="Layer_2" data-name="Layer 2"><g id="Layer_1-2" data-name="Layer 1"><rect class="cls-1" width="263.39" height="263.39" rx="40.64"/><rect class="cls-2" x="52.59" y="73.75" width="158" height="116"/><path class="cls-3" d="M136.61,200.62c-26.48-.05-48-1-69.28-3.81C54.49,195.13,45.91,186.62,43.51,174c-.53-2.81-1.33-4.78-4.66-4.47-4.23.4-5.91-2.42-7-5.78-3-9.3-3.53-19-3.85-28.63-.39-12.17.3-24.31,3.39-36.19,1.06-4.07,2.63-7.65,7.84-7.47,2.32.08,2.93-1.54,3.35-3.55C45.38,74.45,53.16,65.12,65.86,60a11.92,11.92,0,0,0,4.59-3.69C75.9,49.83,82.9,46.78,91.33,46a437.59,437.59,0,0,1,80.85,0c8.41.78,15.42,3.92,20.81,10.41a13,13,0,0,0,5.14,3.77c11.85,5,19.42,13.8,22.3,26.37.7,3.08,1.47,5.23,5.29,5.05,3.47-.16,4.72,2.69,5.69,5.42a61.4,61.4,0,0,1,3.05,16.16c1.16,16.32,1.66,32.62-2.44,48.69-1.14,4.47-2.85,8.27-8.62,7.68-2.33-.23-2.94,1.47-3.39,3.47-3.4,15.21-12,22.94-27.51,24.39C172.26,199.31,152,200.82,136.61,200.62ZM131.94,74.21A561.26,561.26,0,0,0,66.63,78c-5.46.61-8.34,3.11-9.45,8.46a218.62,218.62,0,0,0-.08,90.27c1.35,6.45,3.19,8,9.65,8.79a555.14,555.14,0,0,0,130.11.1c5.47-.63,8.28-3.19,9.4-8.52a217.82,217.82,0,0,0,0-90.74c-1.14-5.4-4.07-7.85-9.48-8.45A557,557,0,0,0,131.94,74.21Z"/><path class="cls-3" d="M108.64,131.85c0,5.65,0,11.3,0,17,0,4.35-2,6.4-6.38,6.4-16.71,0-16,1.48-15.83-14.86.06-8.48.07-17,0-25.43,0-4.58,1.94-6.8,6.6-6.63,3.15.11,6.32,0,9.47,0,4.1,0,6.16,2,6.16,6.09Z"/><path class="cls-3" d="M176.86,131.75c0,5.83,0,11.66,0,17.49,0,3.89-1.92,5.9-5.8,5.9-17.13,0-16.44,1.73-16.29-14.94.08-8.33,0-16.66,0-25,0-5.37,1.47-6.84,6.81-6.86,16.36,0,15.37-1.37,15.28,14.9,0,2.83,0,5.67,0,8.5Z"/></g></g></svg>